<?xml version="1.0" standalone="no"?>
<!DOCTYPE svg PUBLIC "-//W3C//DTD SVG 20010904//EN"
 "http://www.w3.org/TR/2001/REC-SVG-20010904/DTD/svg10.dtd">
<svg version="1.0" xmlns="http://www.w3.org/2000/svg"
 width="128.000000pt" height="128.000000pt" viewBox="0 0 128.000000 128.000000"
 preserveAspectRatio="xMidYMid meet">
<metadata>
Created by potrace 1.14, written by Peter Selinger 2001-2017
</metadata>
<g transform="translate(0.000000,128.000000) scale(0.100000,-0.100000)"
fill="#000000" stroke="none">
<path d="M560 1033 c-277 -67 -465 -116 -475 -123 -5 -5 -27 -11 -47 -15 l-38
-7 0 -434 0 -434 45 0 c25 0 45 -4 45 -8 0 -4 236 -9 525 -11 289 -1 525 1
525 4 0 3 -5 16 -11 27 -11 20 -15 21 -244 14 l-233 -8 -76 36 c-42 20 -76 40
-76 44 0 10 -91 42 -119 42 -11 0 -21 4 -21 8 0 9 -136 52 -164 52 -9 0 -16
-5 -16 -11 0 -5 -5 -7 -10 -4 -14 8 -13 -51 1 -77 6 -11 8 -22 5 -25 -14 -14
-38 27 -86 143 -92 226 -71 303 125 446 44 33 81 65 81 71 1 7 2 18 3 25 1 8
8 11 19 8 9 -3 34 3 55 14 20 11 50 20 65 20 16 0 76 16 135 35 100 32 143 44
209 59 26 6 27 8 21 54 -10 81 -18 92 -60 91 -21 -1 -103 -17 -183 -36z"/>
<path d="M145 1013 c-33 -1 -79 -5 -102 -9 -42 -5 -43 -6 -43 -45 0 -22 5 -39
11 -39 22 0 225 51 269 68 l45 17 -40 7 c-22 4 -49 6 -60 6 -11 -1 -47 -3 -80
-5z"/>
<path d="M817 923 c-17 -5 -18 -6 -2 -24 10 -10 15 -25 12 -34 -4 -8 -1 -14 6
-12 6 1 12 -9 13 -23 2 -53 -4 -48 77 -54 26 -2 50 0 53 5 3 5 14 9 24 9 27 0
53 43 44 72 -9 29 -23 39 -50 32 -15 -4 -25 0 -32 12 -7 13 -24 18 -68 19 -33
1 -67 0 -77 -2z"/>
<path d="M630 755 c-7 -8 -9 -19 -5 -25 3 -5 1 -10 -6 -10 -8 0 -8 -4 2 -16
10 -13 10 -17 -2 -25 -10 -6 -15 -3 -17 12 -3 14 -10 19 -25 17 -12 -2 -21 -6
-19 -10 1 -5 2 -28 2 -53 0 -33 4 -45 15 -45 8 0 26 -10 39 -21 50 -43 68 -47
99 -20 15 13 27 30 27 36 0 7 6 18 13 24 17 14 14 70 -4 85 -8 6 -19 20 -25
31 -7 11 -19 19 -28 17 -9 -2 -16 1 -16 5 0 14 -38 12 -50 -2z m0 -109 c0 -11
-19 -15 -25 -6 -3 5 1 10 9 10 9 0 16 -2 16 -4z"/>
<path d="M830 672 c0 -4 4 -12 9 -17 23 -23 29 -93 13 -151 l-16 -56 -48 4
c-26 3 -45 2 -43 -2 2 -4 -7 -5 -20 -2 -14 2 -25 0 -25 -5 0 -10 -29 -11 -45
-1 -6 4 -60 7 -120 7 -61 0 -125 5 -144 11 -22 6 -39 6 -46 0 -7 -6 -21 -4
-39 5 -34 18 -46 19 -46 4 0 -5 4 -8 9 -4 12 7 18 -17 20 -72 1 -34 -1 -41
-13 -37 -8 3 -17 23 -21 44 -4 22 -12 38 -18 36 -7 -1 -9 -1 -4 1 4 3 7 16 7
29 0 14 -4 23 -9 20 -5 -3 -11 11 -15 32 -4 23 -16 44 -32 55 -23 17 -27 17
-49 3 -29 -19 -38 -20 -30 -3 4 6 -2 2 -13 -10 -15 -17 -18 -32 -15 -75 3 -29
10 -69 16 -88 6 -19 11 -38 12 -43 1 -22 59 -76 108 -100 103 -50 253 -79 417
-81 l144 -1 23 48 c13 26 28 45 33 42 6 -4 8 -11 4 -16 -3 -5 -2 -8 3 -7 4 1
24 -6 43 -17 19 -10 48 -17 65 -16 54 5 159 43 248 88 l87 45 0 120 c0 77 -4
117 -10 113 -6 -4 -10 5 -10 19 0 14 -5 26 -10 26 -6 0 -9 -3 -9 -7 3 -21 -2
-43 -10 -43 -5 0 -7 9 -4 20 5 19 0 20 -93 20 -102 1 -275 37 -282 60 -4 12
-22 14 -22 2z m-499 -265 c-10 -9 -11 -8 -5 6 3 10 9 15 12 12 3 -3 0 -11 -7
-18z m449 -21 c0 -3 -4 -8 -10 -11 -5 -3 -10 -1 -10 4 0 6 5 11 10 11 6 0 10
-2 10 -4z"/>
<path d="M242 528 c2 -14 15 -25 41 -34 21 -7 37 -9 37 -3 0 5 -3 9 -7 9 -5 0
-21 11 -37 25 -35 30 -38 31 -34 3z"/>
<path d="M800 489 c0 -5 5 -7 10 -4 6 3 10 8 10 11 0 2 -4 4 -10 4 -5 0 -10
-5 -10 -11z"/>
<path d="M7 3 c7 -2 19 -2 26 0 6 3 1 5 -13 5 -14 0 -19 -2 -13 -5z"/>
</g>
</svg>
